<?xml version="1.0" encoding="UTF-8"?>
<svg version="1.1" xmlns="http://www.w3.org/2000/svg" width="100" height="100">
<path d="M0 0 C0.73863281 0.32871094 1.47726563 0.65742187 2.23828125 0.99609375 C14.68935006 7.21087594 23.27626177 17.66927998 28.4375 30.4375 C32.5728208 44.1681972 30.96961069 58.97256067 24.6796875 71.6640625 C18.16164381 83.45352951 8.06285062 91.18758828 -4.5 95.9375 C-18.59771325 99.6221296 -33.51968825 97.66253294 -46.125 90.8125 C-57.7105666 83.71262714 -65.3024894 73.61711429 -69.3046875 60.6015625 C-72.15106677 45.85795751 -70.4319445 32.0949075 -62.6875 19.1875 C-49.52093783 -0.22760015 -22.23023093 -10.30181433 0 0 Z " fill="#FEB800" transform="translate(70,3)"/>
<path d="M0 0 C4.95 0 9.9 0 15 0 C14.87496094 1.74925781 14.74992187 3.49851562 14.62109375 5.30078125 C13.69608612 17.36465313 13.69608612 17.36465313 17.68359375 28.29492188 C22.20221864 32.27080691 27.450597 34.77396829 33 37 C33.99 37.495 33.99 37.495 35 38 C34.51675181 43.15464734 31.81389239 46.81550319 29 51 C25.75255111 50.36399158 23.44259192 49.19791669 20.6640625 47.41796875 C19.84679687 46.89783203 19.02953125 46.37769531 18.1875 45.84179688 C17.341875 45.29587891 16.49625 44.74996094 15.625 44.1875 C14.78710938 43.65318359 13.94921875 43.11886719 13.0859375 42.56835938 C10.71774468 41.0547267 8.35441952 39.53497249 6 38 C4.92717773 37.43998291 3.85435547 36.87996582 2.74902344 36.30297852 C0 34 0 34 -0.68115234 30.42480469 C-0.68020788 29.00680654 -0.64661261 27.58857475 -0.5859375 26.171875 C-0.57744781 25.42286926 -0.56895813 24.67386353 -0.56021118 23.90216064 C-0.5266993 21.51662531 -0.45143886 19.13450788 -0.375 16.75 C-0.34489687 15.13025727 -0.31752165 13.51046137 -0.29296875 11.890625 C-0.2320173 7.9247173 -0.11465369 3.96616838 0 0 Z " fill="#090600" transform="translate(40,24)"/>
</svg>
